<svg xmlns="http://www.w3.org/2000/svg" width="1000" height="1002" viewBox="0 0 1000 1002" fill="none"><path d="M499.932 77.119C394.502 77.119 298.122 115.747 224.059 179.649C224.672 219.605 226.237 298.291 227.495 297.474C228.244 296.997 232.973 293.727 237.906 290.218C248.894 282.52 269.715 272.846 274.002 271.211C282.541 267.941 304.484 263.172 314.996 262.287C325.951 261.367 360.005 263.479 362.863 265.182C363.544 265.625 364.802 265.863 365.619 265.659C366.435 265.489 370.994 266.374 375.655 267.669C380.316 268.963 384.806 269.883 385.555 269.712C386.337 269.542 388.106 270.223 389.433 271.245C390.76 272.267 392.461 272.948 393.209 272.778C393.89 272.676 395.591 273.357 396.952 274.345C398.313 275.299 399.912 276.048 400.49 275.912C401.374 275.742 410.05 279.352 415.697 282.214C426.788 287.868 442.505 297.474 447.608 301.732C451.146 304.763 455.331 307.999 456.862 309.021C460.672 311.576 482.445 337.021 482.956 339.508C483.16 340.632 484.248 342.676 485.303 344.038C487.855 347.274 490.066 351.532 497.993 368.496C504.253 381.78 507.587 392.578 511.635 412.301C515.071 429.23 517.18 448.817 516.126 454.096C515.888 455.663 515.241 461.897 514.833 467.926C514.118 477.804 512.179 488.909 510.274 494.121C509.866 495.143 500.85 520.962 494.319 532.442C491.019 538.232 464.993 585.342 463.394 588.373C461.829 591.439 424.508 660.656 423.624 662.086C421.923 664.879 484.249 756.373 488.297 758.792C497.517 764.208 504.661 764.719 525.958 761.483C534.565 760.188 701.163 737.809 703.137 737.741C707.117 737.57 707.9 736.582 707.185 732.631C706.811 730.315 696.503 701.327 693.305 691.619C699.326 690.086 705.076 687.702 710.451 684.534C720.725 678.505 729.503 669.546 735.388 658.101C748.452 632.724 743.315 602.816 724.842 583.128C722.971 581.186 721.031 579.313 718.922 577.575C733.993 577.848 837.722 584.456 913.316 590.485C919.609 561.498 922.909 531.386 922.909 500.525C922.909 266.681 733.551 77.0509 499.966 77.0509L499.932 77.119Z" fill="#005ECF"></path><mask id="mask0_6_157" style="mask-type:luminance" maskUnits="userSpaceOnUse" x="224" y="77" width="699" height="687"><path d="M499.932 77.119C394.502 77.119 298.122 115.747 224.059 179.649C224.672 219.605 226.237 298.291 227.495 297.474C228.244 296.997 232.973 293.727 237.906 290.218C248.894 282.52 269.715 272.846 274.002 271.211C282.541 267.941 304.484 263.172 314.996 262.287C325.951 261.367 360.005 263.479 362.863 265.182C363.544 265.625 364.802 265.863 365.619 265.659C366.435 265.489 370.994 266.374 375.655 267.669C380.316 268.963 384.806 269.883 385.555 269.712C386.337 269.542 388.106 270.223 389.433 271.245C390.76 272.267 392.461 272.948 393.209 272.778C393.89 272.676 395.591 273.357 396.952 274.345C398.313 275.299 399.912 276.048 400.49 275.912C401.374 275.742 410.05 279.352 415.697 282.214C426.788 287.868 442.505 297.474 447.608 301.732C451.146 304.763 455.331 307.999 456.862 309.021C460.672 311.576 482.445 337.021 482.956 339.508C483.16 340.632 484.248 342.676 485.303 344.038C487.855 347.274 490.066 351.532 497.993 368.496C504.253 381.78 507.587 392.578 511.635 412.301C515.071 429.23 517.18 448.817 516.126 454.096C515.888 455.663 515.241 461.897 514.833 467.926C514.118 477.804 512.179 488.909 510.274 494.121C509.866 495.143 500.85 520.962 494.319 532.442C491.019 538.232 464.993 585.342 463.394 588.373C461.829 591.439 424.508 660.656 423.624 662.086C421.923 664.879 484.249 756.373 488.297 758.792C497.517 764.208 504.661 764.719 525.958 761.483C534.565 760.188 701.163 737.809 703.137 737.741C707.117 737.57 707.9 736.582 707.185 732.631C706.811 730.315 696.503 701.327 693.305 691.619C699.326 690.086 705.076 687.702 710.451 684.534C720.725 678.505 729.503 669.546 735.388 658.101C748.452 632.724 743.315 602.816 724.842 583.128C722.971 581.186 721.031 579.313 718.922 577.575C733.993 577.848 837.722 584.456 913.316 590.485C919.609 561.498 922.909 531.386 922.909 500.525C922.909 266.681 733.551 77.0509 499.966 77.0509L499.932 77.119Z" fill="white"></path></mask><g mask="url(#mask0_6_157)"><path d="M744.403 47.7226C757.74 71.158 774.92 105.153 780.976 119.902C785.67 131.688 785.126 135.333 776.281 147.153C765.02 161.902 714.942 216.914 712.492 216.914C711.267 216.914 700.347 197.464 688.236 173.518C666.735 131.177 651.663 105.153 649.418 106.175C647.683 106.856 623.086 133.766 596.72 163.435C584.235 177.674 573.144 189.119 571.953 189.119C570.763 189.119 561.917 180.092 552.187 169.158C534.327 149.026 518.031 135.333 495.169 121.265C488.399 117.109 482.854 112.749 482.854 111.727C482.854 109.138 491.699 96.9779 503.47 83.2845C524.631 58.8271 556.168 26.0243 558.583 26.0243C571.409 26.0243 615.261 61.0753 642.648 93.3672L650.439 102.564L677.485 72.3843C692.216 55.8977 709.737 37.3333 716.132 31.4403C729.809 18.5985 726.883 16.8613 744.369 47.7566L744.403 47.7226Z" fill="#F4F4F4"></path><path d="M421.344 98.9195C443.866 101.168 464.857 105.698 469.518 109.343C472.988 112.306 472.988 112.477 470.028 117.143C466.388 122.866 422.365 173.007 408.689 187.416L398.823 197.669L373.682 192.627C341.26 186.019 312.513 184.486 278.356 187.416C263.965 188.642 251.854 189.323 251.31 188.812C250.085 187.586 262.4 173.007 297.748 133.46L324.964 102.905L343.676 100.827C353.916 99.6008 363.952 98.4086 365.857 98.2383C373.988 97.012 405.355 97.3867 421.31 98.9195H421.344Z" fill="#F4F4F4"></path><path d="M581.309 211.021C586.344 218.481 598.83 241.576 609.376 262.048C619.786 282.52 629.482 300.914 630.877 302.822C633.122 306.126 634.177 305.411 650.473 288.072C659.999 278.024 676.635 260.141 687.555 248.321C698.476 236.33 708.342 226.452 709.396 226.111C710.451 225.771 720.997 244.506 733.143 268.622C754.474 310.793 769.375 336.647 772.3 336.647C773.151 336.647 790.331 318.252 810.608 295.873C830.884 273.493 848.03 255.099 848.745 255.099C849.255 255.099 856.025 262.218 863.476 270.905C884.262 295.021 900.218 309.089 921.719 321.931C932.469 328.335 941.655 333.922 941.995 334.262C942.335 334.432 932.469 345.878 920.154 359.605C883.071 400.89 869.361 417.206 869.361 420.34C869.361 423.133 880.792 426.744 901.783 430.593C924.849 434.749 957.576 435.805 992.073 433.182C1007.14 432.126 1013.23 432.126 1013.23 433.522C1013.23 437.167 995.373 457.298 965.741 487.138C941.825 511.084 934.715 517.318 929.169 518.714C908.008 524.607 860.55 524.948 823.808 519.77C807.172 517.352 791.386 511.97 791.386 508.836C791.386 505.872 802.136 492.179 827.618 462.51C857.59 427.629 860.72 423.814 860.72 420.68C860.72 419.284 856.569 416.184 851.704 413.732C833.503 404.534 807.342 382.155 783.425 355.245C777.54 348.841 771.654 343.63 770.429 343.63C769.034 343.63 759.679 352.827 749.813 363.931C718.446 399.152 694.189 425.177 692.454 425.177C689.664 425.177 681.023 409.746 658.127 364.442C645.812 340.155 634.551 318.627 632.986 316.72C629.856 312.734 633.497 309.26 584.643 362.364C568.687 379.702 554.841 393.941 554.127 393.941C553.276 393.941 541.981 373.128 529.156 347.445C505.069 300.233 493.978 280.647 491.563 281.498C490.882 281.839 477.512 296.418 462.101 314.131C446.52 331.844 429.68 350.919 424.508 356.471L414.983 366.724L393.822 344.345C370.246 319.547 351.534 304.252 336.803 297.678C322.243 291.274 322.923 288.141 343.199 264.024C363.305 240.077 397.972 202.233 400.218 201.722C403.177 201.211 429.339 216.983 444.581 228.632C451.521 234.014 465.027 247.367 474.553 258.131L492.073 277.922L496.394 273.936C498.639 271.688 515.82 253.294 534.361 232.992C552.902 212.691 569.028 196.374 570.252 196.715C571.307 196.885 576.308 203.494 581.343 211.124L581.309 211.021Z" fill="#F4F4F4"></path><path d="M286.181 279.386C303.497 283.201 317.208 288.754 316.153 291.376C315.813 292.228 300.027 310.282 280.976 331.639C261.924 352.827 245.458 371.391 244.574 372.583C243.179 374.491 239.709 373.98 225.522 369.62C196.401 360.593 179.935 358.685 141.457 359.912C122.916 360.423 105.055 361.479 102.13 361.99C98.9997 362.5 96.4142 362.33 96.4142 361.479C96.4142 359.23 128.291 322.442 149.282 300.403C160.883 288.413 169.728 280.613 173.199 279.591C184.97 275.605 200.585 274.379 234.197 274.89C262.605 275.401 271.994 276.116 286.181 279.386Z" fill="#F4F4F4"></path><path d="M425.529 389.581C429.849 396.189 442.845 420.306 454.48 443.026L475.437 484.515L492.583 465.61C501.939 455.357 519.46 436.111 531.231 422.929C543.002 409.746 552.902 399.323 553.242 399.663C553.582 400.004 564.333 421.191 577.158 446.875C604.375 501.376 613.731 517.147 617.031 513.503C618.255 512.106 630.026 498.583 643.362 483.323C656.528 468.062 672.654 450.179 678.88 443.401C689.971 431.955 690.651 431.41 694.665 433.693C697.081 434.919 704.021 441.834 709.907 448.953C727.223 469.425 752.534 490.782 774.546 503.079C779.921 506.213 784.412 509.143 784.412 509.688C784.412 511.084 772.981 524.267 744.029 557.069C730.863 571.819 717.697 586.909 714.738 590.383L709.532 596.991L714.567 598.899C725.488 603.055 753.385 609.152 768.83 610.515C784.412 611.911 812.172 611.025 845.07 608.266L859.801 606.87L856.161 611.026C837.96 632.008 784.071 692.402 782.847 693.118C781.996 693.629 770.701 695.196 757.535 696.763C727.223 700.067 690.481 700.067 670.715 696.763C653.739 693.799 632.578 687.906 631.217 685.828C630.707 684.977 644.893 667.945 662.584 647.984C680.275 628.023 696.911 608.948 699.666 605.473L704.531 599.24L700.721 595.765C698.646 593.858 688.746 587.079 678.88 580.505C660.679 568.515 645.268 554.481 624.821 531.215L613.731 518.374L576.818 558.466C556.372 580.505 538.851 598.899 537.491 599.24C531.945 601.488 522.079 585.172 494.863 529.649L474.416 487.478L455.705 507.95C407.022 560.884 401.102 566.777 398.006 564.87C396.952 564.189 389.161 549.78 380.69 532.953C372.185 515.955 359.359 491.668 352.079 479.167C344.968 466.495 338.913 455.561 338.572 454.88C338.402 454.199 354.528 435.089 374.464 412.369C415.901 365.157 411.036 367.44 425.597 389.649L425.529 389.581Z" fill="#F4F4F4"></path><path d="M549.602 622.266C570.218 646.894 596.754 669.478 615.976 678.3C621.351 680.889 624.991 683.682 624.991 685.42C624.991 688.213 585.664 735.561 569.028 752.558C558.617 763.322 550.486 767.648 543.546 766.081C530.891 763.288 500.578 738.32 475.607 710.047L458.291 690.597L464.006 683.989C483.058 662.12 534.191 605.541 534.905 605.541C535.415 605.541 542.015 613.001 549.636 622.198L549.602 622.266Z" fill="#F4F4F4"></path></g><path d="M500 0C223.855 0 0 224.136 0 500.627C0 777.118 223.855 1001.25 500 1001.25C776.145 1001.25 1000 777.118 1000 500.627C1000 224.136 776.145 0 500 0ZM954.446 594.062C952.303 604.588 949.786 614.977 946.928 625.23C946.384 627.342 945.737 629.454 945.125 631.566C942.233 641.41 939.069 651.084 935.565 660.622C866.537 849.298 679.594 978.057 469.211 964.057C213.581 947.059 20.1402 725.751 37.1164 469.868C44.1927 363.08 86.7864 267.124 152.616 192.764C168.572 174.744 185.888 158.019 204.361 142.691C292.475 69.6933 407.6 29.0218 530.721 37.197C786.351 54.1945 979.792 275.469 962.815 531.42C961.387 552.778 958.563 573.658 954.412 594.028L954.446 594.062Z" fill="#FFC800"></path><path d="M770.667 685.522C762.604 698.466 737.565 711.069 732.36 712.602C735.49 721.901 750.731 771.94 750.595 773.2C750.357 775.21 749.541 775.551 744.506 776.062C741.308 776.368 502.619 808.558 498.265 808.149C481.493 806.582 468.871 802.188 458.018 794.149C446.179 785.395 381.778 687.02 376.607 679.22C318.16 590.894 252.432 565.279 205.824 612.661C201.027 617.532 200.381 617.089 199.156 608.028C198.033 599.342 188.746 516.875 189.29 518.101C190.175 520.213 378.887 604.111 379.601 604.656C380.656 605.507 402.497 613.751 403.245 613.614C403.994 613.478 467.918 495.483 470.028 481.79C470.572 478.315 471.184 474.534 471.389 473.376C472.069 469.834 468.837 471.537 466.115 476.169C464.721 478.486 460.332 485.98 456.386 492.792C448.016 507.133 445.159 510.096 434.17 516.16C414.438 527.06 391.985 528.388 371.504 519.941C356.161 513.571 332.483 495.756 316.391 478.452C302.34 463.293 286.963 439.62 279.547 421.77C275.26 411.449 266.959 382.393 267.435 379.464C267.912 376.807 425.393 387.639 437.742 388.423C447.642 389.036 448.187 389.308 455.603 397.62C464.04 407.157 464.959 404.262 458.223 389.172C450.33 371.493 439.375 355.96 427.298 345.23C393.379 315.255 343.165 300.676 301.694 308.817C278.832 313.313 250.595 325.78 235.898 337.737C219.296 351.294 209.669 361.751 202.966 373.537C201.197 376.637 198.918 380.52 197.931 382.087C196.979 383.688 194.461 389.853 192.386 395.78C186.943 411.347 186.977 411.211 186.466 404.705C186.262 401.912 183.711 269.406 182.928 220.559C172.144 232.754 162.074 245.562 152.786 258.948C105.157 327.484 77.1925 410.802 77.1925 500.627C77.1925 734.505 266.551 924.1 500.102 924.1C680.139 924.1 833.878 811.487 894.944 652.753C898.653 643.079 902.021 633.269 905.014 623.288C905.219 622.573 905.457 621.858 905.661 621.108C845.853 615.828 777.812 611.741 774.92 611.57C789.549 631.055 784.446 663.415 770.769 685.488L770.667 685.522Z" fill="#F4F4F4"></path><path d="M530.789 37.197C407.668 29.0218 292.543 69.6592 204.43 142.691C185.956 158.019 168.64 174.778 152.684 192.764C86.8545 267.089 44.2608 363.046 37.1845 469.868C20.2083 725.784 213.615 947.059 469.279 964.057C679.697 978.057 866.605 849.298 935.633 660.622C939.137 651.084 942.301 641.41 945.193 631.566C945.805 629.454 946.418 627.342 946.996 625.23C949.854 614.977 952.371 604.622 954.514 594.062C958.665 573.692 961.489 552.777 962.918 531.454C979.894 275.503 786.487 54.2286 530.823 37.231L530.789 37.197ZM913.35 590.588C911.138 600.909 908.519 611.094 905.559 621.142C905.355 621.858 905.117 622.573 904.913 623.322C901.919 633.303 898.551 643.113 894.843 652.787C833.776 811.487 680.037 924.134 500 924.134C266.449 924.134 77.0906 734.539 77.0906 500.661C77.0906 410.836 105.021 327.518 152.684 258.982C161.972 245.596 172.042 232.788 182.826 220.593C185.582 217.425 188.406 214.326 191.298 211.26C201.674 200.155 212.628 189.63 224.127 179.717C298.19 115.815 394.57 77.1871 500 77.1871C733.585 77.1871 922.943 266.817 922.943 500.661C922.943 531.522 919.643 561.634 913.35 590.622V590.588Z" fill="#1B1B1B"></path><path d="M724.842 583.23C743.315 602.884 748.452 632.826 735.388 658.203C729.503 669.648 720.759 678.607 710.451 684.636C705.076 687.804 699.326 690.188 693.305 691.721C696.503 701.429 706.811 730.417 707.185 732.733C707.866 736.685 707.117 737.672 703.137 737.843C701.198 737.911 534.565 760.256 525.958 761.585C504.661 764.821 497.517 764.31 488.297 758.894C484.249 756.475 421.889 664.982 423.624 662.189C424.543 660.758 461.829 591.575 463.394 588.476C464.993 585.41 490.985 538.335 494.319 532.544C500.851 521.065 509.866 495.211 510.274 494.223C512.179 489.011 514.085 477.907 514.833 468.028C515.275 461.999 515.888 455.766 516.126 454.199C517.18 448.885 515.071 429.332 511.635 412.403C507.587 392.646 504.253 381.848 497.993 368.598C490.066 351.634 487.855 347.376 485.303 344.14C484.249 342.778 483.16 340.734 482.956 339.61C482.445 337.123 460.672 311.644 456.862 309.123C455.331 308.102 451.181 304.866 447.608 301.834C442.471 297.542 426.754 287.97 415.697 282.316C410.05 279.454 401.375 275.878 400.49 276.014C399.946 276.15 398.313 275.401 396.952 274.447C395.591 273.459 393.89 272.778 393.21 272.88C392.461 273.051 390.794 272.369 389.433 271.347C388.107 270.326 386.337 269.678 385.555 269.815C384.773 269.985 380.316 269.031 375.655 267.771C370.994 266.476 366.469 265.591 365.619 265.761C364.802 265.965 363.544 265.693 362.863 265.284C360.006 263.581 325.951 261.469 314.996 262.389C304.484 263.308 282.575 268.043 274.002 271.313C269.715 272.948 248.894 282.622 237.906 290.321C232.973 293.829 228.244 297.099 227.496 297.576C226.203 298.394 224.672 219.708 224.059 179.751C212.561 189.664 201.606 200.189 191.23 211.294C188.338 214.36 185.514 217.459 182.759 220.627C183.575 269.474 186.093 401.98 186.297 404.773C186.841 411.279 186.773 411.415 192.216 395.848C194.292 389.921 196.809 383.756 197.762 382.155C198.748 380.588 201.028 376.705 202.797 373.605C209.499 361.819 219.161 351.362 235.729 337.805C250.425 325.849 278.662 313.381 301.524 308.885C342.995 300.71 393.21 315.289 427.128 345.299C439.205 355.994 450.16 371.527 458.053 389.24C464.789 404.33 463.87 407.225 455.433 397.688C448.017 389.376 447.472 389.104 437.572 388.491C425.223 387.707 267.742 376.875 267.266 379.532C266.789 382.462 275.056 411.517 279.377 421.839C286.793 439.722 302.171 463.396 316.221 478.52C332.313 495.824 355.991 513.639 371.334 520.009C391.815 528.456 414.302 527.128 434 516.228C445.023 510.164 447.881 507.201 456.216 492.86C460.162 486.082 464.551 478.588 465.946 476.238C468.667 471.605 471.933 469.936 471.219 473.444C471.015 474.603 470.402 478.383 469.858 481.858C467.783 495.551 403.824 613.546 403.076 613.683C402.327 613.819 380.486 605.575 379.431 604.724C378.717 604.179 190.005 520.281 189.12 518.169C188.576 516.977 197.864 599.41 198.986 608.096C200.211 617.123 200.892 617.6 205.654 612.729C252.263 565.347 317.99 590.962 376.438 679.288C381.609 687.089 446.009 785.463 457.849 794.217C468.701 802.256 481.323 806.651 498.095 808.217C502.45 808.626 741.104 776.402 744.336 776.13C749.371 775.619 750.187 775.278 750.425 773.269C750.561 772.008 735.32 721.969 732.19 712.67C737.395 711.137 762.435 698.534 770.497 685.59C784.174 663.517 789.277 631.157 774.648 611.673C777.54 611.843 845.581 615.897 905.389 621.21C908.349 611.162 910.968 600.977 913.18 590.656C837.586 584.627 733.857 578.018 718.786 577.746C720.861 579.483 722.835 581.322 724.706 583.298L724.842 583.23Z" fill="#1B1B1B"></path></svg>